<mxfile host="app.diagrams.net" modified="2023-03-30T21:29:46.013Z" agent="Mozilla/5.0 (Windows NT 10.0; Win64; x64) AppleWebKit/537.36 (KHTML, like Gecko) Chrome/111.0.0.0 Safari/537.36" version="21.1.1" etag="6cQh2rTFdHzg1YMqUeXP" type="github">
  <diagram name="Strona-1" id="yeqs0x_WfFhX8s1mVl_F">
    <mxGraphModel>
      <root>
        <mxCell id="0" />
        <mxCell id="1" parent="0" />
      </root>
    </mxGraphModel>
  </diagram>
</mxfile>
